<svg width="25" height="24" viewBox="0 0 25 24" fill="none" xmlns="http://www.w3.org/2000/svg">
<path d="M21.9092 10.5H20.9092V9.5C20.9092 9.23478 20.8038 8.98043 20.6163 8.79289C20.4288 8.60536 20.1744 8.5 19.9092 8.5C19.644 8.5 19.3896 8.60536 19.2021 8.79289C19.0145 8.98043 18.9092 9.23478 18.9092 9.5V10.5H17.9092C17.644 10.5 17.3896 10.6054 17.2021 10.7929C17.0145 10.9804 16.9092 11.2348 16.9092 11.5C16.9092 11.7652 17.0145 12.0196 17.2021 12.2071C17.3896 12.3946 17.644 12.5 17.9092 12.5H18.9092V13.5C18.9092 13.7652 19.0145 14.0196 19.2021 14.2071C19.3896 14.3946 19.644 14.5 19.9092 14.5C20.1744 14.5 20.4288 14.3946 20.6163 14.2071C20.8038 14.0196 20.9092 13.7652 20.9092 13.5V12.5H21.9092C22.1744 12.5 22.4288 12.3946 22.6163 12.2071C22.8038 12.0196 22.9092 11.7652 22.9092 11.5C22.9092 11.2348 22.8038 10.9804 22.6163 10.7929C22.4288 10.6054 22.1744 10.5 21.9092 10.5ZM14.2092 12.22C14.7428 11.7581 15.1707 11.1869 15.4641 10.545C15.7574 9.90316 15.9092 9.20571 15.9092 8.5C15.9092 7.17392 15.3824 5.90215 14.4447 4.96447C13.507 4.02678 12.2353 3.5 10.9092 3.5C9.5831 3.5 8.31133 4.02678 7.37365 4.96447C6.43596 5.90215 5.90918 7.17392 5.90918 8.5C5.90917 9.20571 6.06098 9.90316 6.35431 10.545C6.64763 11.1869 7.0756 11.7581 7.60918 12.22C6.20932 12.8539 5.02165 13.8775 4.18816 15.1685C3.35467 16.4596 2.91065 17.9633 2.90918 19.5C2.90918 19.7652 3.01454 20.0196 3.20207 20.2071C3.38961 20.3946 3.64396 20.5 3.90918 20.5C4.1744 20.5 4.42875 20.3946 4.61629 20.2071C4.80382 20.0196 4.90918 19.7652 4.90918 19.5C4.90918 17.9087 5.54132 16.3826 6.66654 15.2574C7.79176 14.1321 9.31788 13.5 10.9092 13.5C12.5005 13.5 14.0266 14.1321 15.1518 15.2574C16.277 16.3826 16.9092 17.9087 16.9092 19.5C16.9092 19.7652 17.0145 20.0196 17.2021 20.2071C17.3896 20.3946 17.644 20.5 17.9092 20.5C18.1744 20.5 18.4288 20.3946 18.6163 20.2071C18.8038 20.0196 18.9092 19.7652 18.9092 19.5C18.9077 17.9633 18.4637 16.4596 17.6302 15.1685C16.7967 13.8775 15.609 12.8539 14.2092 12.22ZM10.9092 11.5C10.3158 11.5 9.73582 11.3241 9.24247 10.9944C8.74912 10.6648 8.3646 10.1962 8.13754 9.64805C7.91048 9.09987 7.85107 8.49667 7.96682 7.91473C8.08258 7.33279 8.3683 6.79824 8.78786 6.37868C9.20742 5.95912 9.74197 5.6734 10.3239 5.55764C10.9059 5.44189 11.5091 5.5013 12.0572 5.72836C12.6054 5.95542 13.0739 6.33994 13.4036 6.83329C13.7332 7.32664 13.9092 7.90666 13.9092 8.5C13.9092 9.29565 13.5931 10.0587 13.0305 10.6213C12.4679 11.1839 11.7048 11.5 10.9092 11.5Z" fill="white"/>
</svg>
